<mxfile host="app.diagrams.net" modified="2021-10-07T17:57:18.824Z" agent="5.0 (Windows NT 10.0; Win64; x64) AppleWebKit/537.36 (KHTML, like Gecko) Chrome/94.0.4606.61 Safari/537.36 Edg/94.0.992.31" etag="jzAq0ilL6yFjyCe_juDF" version="14.9.8" type="github">
  <diagram id="dPhYD3kUWg6WEWKqX14j" name="Page-1">
    <mxGraphModel dx="868" dy="441" grid="1" gridSize="10" guides="1" tooltips="1" connect="1" arrows="1" fold="1" page="1" pageScale="1" pageWidth="850" pageHeight="1100" math="0" shadow="0">
      <root>
        <mxCell id="0" />
        <mxCell id="1" parent="0" />
        <mxCell id="ipYWilvNOGS_KGryyahP-3" value="Customers" style="shape=table;startSize=30;container=1;collapsible=1;childLayout=tableLayout;fixedRows=1;rowLines=0;fontStyle=1;align=center;resizeLast=1;" vertex="1" parent="1">
          <mxGeometry x="40" y="280" width="180" height="230" as="geometry" />
        </mxCell>
        <mxCell id="ipYWilvNOGS_KGryyahP-4" value="" style="shape=partialRectangle;collapsible=0;dropTarget=0;pointerEvents=0;fillColor=none;top=0;left=0;bottom=1;right=0;points=[[0,0.5],[1,0.5]];portConstraint=eastwest;" vertex="1" parent="ipYWilvNOGS_KGryyahP-3">
          <mxGeometry y="30" width="180" height="30" as="geometry" />
        </mxCell>
        <mxCell id="ipYWilvNOGS_KGryyahP-5" value="PK" style="shape=partialRectangle;connectable=0;fillColor=none;top=0;left=0;bottom=0;right=0;fontStyle=1;overflow=hidden;" vertex="1" parent="ipYWilvNOGS_KGryyahP-4">
          <mxGeometry width="30" height="30" as="geometry" />
        </mxCell>
        <mxCell id="ipYWilvNOGS_KGryyahP-6" value="SubscriberId" style="shape=partialRectangle;connectable=0;fillColor=none;top=0;left=0;bottom=0;right=0;align=left;spacingLeft=6;fontStyle=5;overflow=hidden;" vertex="1" parent="ipYWilvNOGS_KGryyahP-4">
          <mxGeometry x="30" width="150" height="30" as="geometry" />
        </mxCell>
        <mxCell id="ipYWilvNOGS_KGryyahP-7" value="" style="shape=partialRectangle;collapsible=0;dropTarget=0;pointerEvents=0;fillColor=none;top=0;left=0;bottom=0;right=0;points=[[0,0.5],[1,0.5]];portConstraint=eastwest;" vertex="1" parent="ipYWilvNOGS_KGryyahP-3">
          <mxGeometry y="60" width="180" height="30" as="geometry" />
        </mxCell>
        <mxCell id="ipYWilvNOGS_KGryyahP-8" value="" style="shape=partialRectangle;connectable=0;fillColor=none;top=0;left=0;bottom=0;right=0;editable=1;overflow=hidden;" vertex="1" parent="ipYWilvNOGS_KGryyahP-7">
          <mxGeometry width="30" height="30" as="geometry" />
        </mxCell>
        <mxCell id="ipYWilvNOGS_KGryyahP-9" value="FirstName" style="shape=partialRectangle;connectable=0;fillColor=none;top=0;left=0;bottom=0;right=0;align=left;spacingLeft=6;overflow=hidden;" vertex="1" parent="ipYWilvNOGS_KGryyahP-7">
          <mxGeometry x="30" width="150" height="30" as="geometry" />
        </mxCell>
        <mxCell id="ipYWilvNOGS_KGryyahP-10" value="" style="shape=partialRectangle;collapsible=0;dropTarget=0;pointerEvents=0;fillColor=none;top=0;left=0;bottom=0;right=0;points=[[0,0.5],[1,0.5]];portConstraint=eastwest;" vertex="1" parent="ipYWilvNOGS_KGryyahP-3">
          <mxGeometry y="90" width="180" height="30" as="geometry" />
        </mxCell>
        <mxCell id="ipYWilvNOGS_KGryyahP-11" value="" style="shape=partialRectangle;connectable=0;fillColor=none;top=0;left=0;bottom=0;right=0;editable=1;overflow=hidden;" vertex="1" parent="ipYWilvNOGS_KGryyahP-10">
          <mxGeometry width="30" height="30" as="geometry" />
        </mxCell>
        <mxCell id="ipYWilvNOGS_KGryyahP-12" value="LastName" style="shape=partialRectangle;connectable=0;fillColor=none;top=0;left=0;bottom=0;right=0;align=left;spacingLeft=6;overflow=hidden;" vertex="1" parent="ipYWilvNOGS_KGryyahP-10">
          <mxGeometry x="30" width="150" height="30" as="geometry" />
        </mxCell>
        <mxCell id="ipYWilvNOGS_KGryyahP-13" value="" style="shape=partialRectangle;collapsible=0;dropTarget=0;pointerEvents=0;fillColor=none;top=0;left=0;bottom=0;right=0;points=[[0,0.5],[1,0.5]];portConstraint=eastwest;" vertex="1" parent="ipYWilvNOGS_KGryyahP-3">
          <mxGeometry y="120" width="180" height="30" as="geometry" />
        </mxCell>
        <mxCell id="ipYWilvNOGS_KGryyahP-14" value="" style="shape=partialRectangle;connectable=0;fillColor=none;top=0;left=0;bottom=0;right=0;editable=1;overflow=hidden;" vertex="1" parent="ipYWilvNOGS_KGryyahP-13">
          <mxGeometry width="30" height="30" as="geometry" />
        </mxCell>
        <mxCell id="ipYWilvNOGS_KGryyahP-15" value="Email" style="shape=partialRectangle;connectable=0;fillColor=none;top=0;left=0;bottom=0;right=0;align=left;spacingLeft=6;overflow=hidden;" vertex="1" parent="ipYWilvNOGS_KGryyahP-13">
          <mxGeometry x="30" width="150" height="30" as="geometry" />
        </mxCell>
        <mxCell id="ipYWilvNOGS_KGryyahP-16" value="" style="shape=partialRectangle;collapsible=0;dropTarget=0;pointerEvents=0;fillColor=none;top=0;left=0;bottom=0;right=0;points=[[0,0.5],[1,0.5]];portConstraint=eastwest;" vertex="1" parent="ipYWilvNOGS_KGryyahP-3">
          <mxGeometry y="150" width="180" height="20" as="geometry" />
        </mxCell>
        <mxCell id="ipYWilvNOGS_KGryyahP-17" value="" style="shape=partialRectangle;connectable=0;fillColor=none;top=0;left=0;bottom=0;right=0;editable=1;overflow=hidden;" vertex="1" parent="ipYWilvNOGS_KGryyahP-16">
          <mxGeometry width="30" height="20" as="geometry" />
        </mxCell>
        <mxCell id="ipYWilvNOGS_KGryyahP-18" value="UserName" style="shape=partialRectangle;connectable=0;fillColor=none;top=0;left=0;bottom=0;right=0;align=left;spacingLeft=6;overflow=hidden;" vertex="1" parent="ipYWilvNOGS_KGryyahP-16">
          <mxGeometry x="30" width="150" height="20" as="geometry" />
        </mxCell>
        <mxCell id="ipYWilvNOGS_KGryyahP-19" value="" style="shape=partialRectangle;collapsible=0;dropTarget=0;pointerEvents=0;fillColor=none;top=0;left=0;bottom=0;right=0;points=[[0,0.5],[1,0.5]];portConstraint=eastwest;" vertex="1" parent="ipYWilvNOGS_KGryyahP-3">
          <mxGeometry y="170" width="180" height="30" as="geometry" />
        </mxCell>
        <mxCell id="ipYWilvNOGS_KGryyahP-20" value="" style="shape=partialRectangle;connectable=0;fillColor=none;top=0;left=0;bottom=0;right=0;editable=1;overflow=hidden;" vertex="1" parent="ipYWilvNOGS_KGryyahP-19">
          <mxGeometry width="30" height="30" as="geometry" />
        </mxCell>
        <mxCell id="ipYWilvNOGS_KGryyahP-21" value="Member Since" style="shape=partialRectangle;connectable=0;fillColor=none;top=0;left=0;bottom=0;right=0;align=left;spacingLeft=6;overflow=hidden;" vertex="1" parent="ipYWilvNOGS_KGryyahP-19">
          <mxGeometry x="30" width="150" height="30" as="geometry" />
        </mxCell>
        <mxCell id="ipYWilvNOGS_KGryyahP-22" value="" style="shape=partialRectangle;collapsible=0;dropTarget=0;pointerEvents=0;fillColor=none;top=0;left=0;bottom=0;right=0;points=[[0,0.5],[1,0.5]];portConstraint=eastwest;" vertex="1" parent="ipYWilvNOGS_KGryyahP-3">
          <mxGeometry y="200" width="180" height="30" as="geometry" />
        </mxCell>
        <mxCell id="ipYWilvNOGS_KGryyahP-23" value="" style="shape=partialRectangle;connectable=0;fillColor=none;top=0;left=0;bottom=0;right=0;editable=1;overflow=hidden;" vertex="1" parent="ipYWilvNOGS_KGryyahP-22">
          <mxGeometry width="30" height="30" as="geometry" />
        </mxCell>
        <mxCell id="ipYWilvNOGS_KGryyahP-24" value="Search Total" style="shape=partialRectangle;connectable=0;fillColor=none;top=0;left=0;bottom=0;right=0;align=left;spacingLeft=6;overflow=hidden;" vertex="1" parent="ipYWilvNOGS_KGryyahP-22">
          <mxGeometry x="30" width="150" height="30" as="geometry" />
        </mxCell>
        <mxCell id="ipYWilvNOGS_KGryyahP-38" value="HousingData" style="shape=table;startSize=30;container=1;collapsible=1;childLayout=tableLayout;fixedRows=1;rowLines=0;fontStyle=1;align=center;resizeLast=1;" vertex="1" parent="1">
          <mxGeometry x="320" y="280" width="160" height="160" as="geometry" />
        </mxCell>
        <mxCell id="ipYWilvNOGS_KGryyahP-39" value="" style="shape=partialRectangle;collapsible=0;dropTarget=0;pointerEvents=0;fillColor=none;top=0;left=0;bottom=1;right=0;points=[[0,0.5],[1,0.5]];portConstraint=eastwest;" vertex="1" parent="ipYWilvNOGS_KGryyahP-38">
          <mxGeometry y="30" width="160" height="30" as="geometry" />
        </mxCell>
        <mxCell id="ipYWilvNOGS_KGryyahP-40" value="PK" style="shape=partialRectangle;connectable=0;fillColor=none;top=0;left=0;bottom=0;right=0;fontStyle=1;overflow=hidden;" vertex="1" parent="ipYWilvNOGS_KGryyahP-39">
          <mxGeometry width="30" height="30" as="geometry" />
        </mxCell>
        <mxCell id="ipYWilvNOGS_KGryyahP-41" value="CityId" style="shape=partialRectangle;connectable=0;fillColor=none;top=0;left=0;bottom=0;right=0;align=left;spacingLeft=6;fontStyle=5;overflow=hidden;" vertex="1" parent="ipYWilvNOGS_KGryyahP-39">
          <mxGeometry x="30" width="130" height="30" as="geometry" />
        </mxCell>
        <mxCell id="ipYWilvNOGS_KGryyahP-42" value="" style="shape=partialRectangle;collapsible=0;dropTarget=0;pointerEvents=0;fillColor=none;top=0;left=0;bottom=0;right=0;points=[[0,0.5],[1,0.5]];portConstraint=eastwest;" vertex="1" parent="ipYWilvNOGS_KGryyahP-38">
          <mxGeometry y="60" width="160" height="30" as="geometry" />
        </mxCell>
        <mxCell id="ipYWilvNOGS_KGryyahP-43" value="" style="shape=partialRectangle;connectable=0;fillColor=none;top=0;left=0;bottom=0;right=0;editable=1;overflow=hidden;" vertex="1" parent="ipYWilvNOGS_KGryyahP-42">
          <mxGeometry width="30" height="30" as="geometry" />
        </mxCell>
        <mxCell id="ipYWilvNOGS_KGryyahP-44" value="City" style="shape=partialRectangle;connectable=0;fillColor=none;top=0;left=0;bottom=0;right=0;align=left;spacingLeft=6;overflow=hidden;" vertex="1" parent="ipYWilvNOGS_KGryyahP-42">
          <mxGeometry x="30" width="130" height="30" as="geometry" />
        </mxCell>
        <mxCell id="ipYWilvNOGS_KGryyahP-45" value="" style="shape=partialRectangle;collapsible=0;dropTarget=0;pointerEvents=0;fillColor=none;top=0;left=0;bottom=0;right=0;points=[[0,0.5],[1,0.5]];portConstraint=eastwest;" vertex="1" parent="ipYWilvNOGS_KGryyahP-38">
          <mxGeometry y="90" width="160" height="30" as="geometry" />
        </mxCell>
        <mxCell id="ipYWilvNOGS_KGryyahP-46" value="" style="shape=partialRectangle;connectable=0;fillColor=none;top=0;left=0;bottom=0;right=0;editable=1;overflow=hidden;" vertex="1" parent="ipYWilvNOGS_KGryyahP-45">
          <mxGeometry width="30" height="30" as="geometry" />
        </mxCell>
        <mxCell id="ipYWilvNOGS_KGryyahP-47" value="State" style="shape=partialRectangle;connectable=0;fillColor=none;top=0;left=0;bottom=0;right=0;align=left;spacingLeft=6;overflow=hidden;" vertex="1" parent="ipYWilvNOGS_KGryyahP-45">
          <mxGeometry x="30" width="130" height="30" as="geometry" />
        </mxCell>
        <mxCell id="ipYWilvNOGS_KGryyahP-48" value="" style="shape=partialRectangle;collapsible=0;dropTarget=0;pointerEvents=0;fillColor=none;top=0;left=0;bottom=0;right=0;points=[[0,0.5],[1,0.5]];portConstraint=eastwest;" vertex="1" parent="ipYWilvNOGS_KGryyahP-38">
          <mxGeometry y="120" width="160" height="30" as="geometry" />
        </mxCell>
        <mxCell id="ipYWilvNOGS_KGryyahP-49" value="" style="shape=partialRectangle;connectable=0;fillColor=none;top=0;left=0;bottom=0;right=0;editable=1;overflow=hidden;" vertex="1" parent="ipYWilvNOGS_KGryyahP-48">
          <mxGeometry width="30" height="30" as="geometry" />
        </mxCell>
        <mxCell id="ipYWilvNOGS_KGryyahP-50" value="Country" style="shape=partialRectangle;connectable=0;fillColor=none;top=0;left=0;bottom=0;right=0;align=left;spacingLeft=6;overflow=hidden;" vertex="1" parent="ipYWilvNOGS_KGryyahP-48">
          <mxGeometry x="30" width="130" height="30" as="geometry" />
        </mxCell>
        <mxCell id="ipYWilvNOGS_KGryyahP-60" value="Statistics" style="shape=table;startSize=30;container=1;collapsible=1;childLayout=tableLayout;fixedRows=1;rowLines=0;fontStyle=1;align=center;resizeLast=1;" vertex="1" parent="1">
          <mxGeometry x="320" y="480" width="160" height="160" as="geometry" />
        </mxCell>
        <mxCell id="ipYWilvNOGS_KGryyahP-61" value="" style="shape=partialRectangle;collapsible=0;dropTarget=0;pointerEvents=0;fillColor=none;top=0;left=0;bottom=1;right=0;points=[[0,0.5],[1,0.5]];portConstraint=eastwest;" vertex="1" parent="ipYWilvNOGS_KGryyahP-60">
          <mxGeometry y="30" width="160" height="30" as="geometry" />
        </mxCell>
        <mxCell id="ipYWilvNOGS_KGryyahP-62" value="PK, FK" style="shape=partialRectangle;connectable=0;fillColor=none;top=0;left=0;bottom=0;right=0;fontStyle=1;overflow=hidden;" vertex="1" parent="ipYWilvNOGS_KGryyahP-61">
          <mxGeometry width="50" height="30" as="geometry" />
        </mxCell>
        <mxCell id="ipYWilvNOGS_KGryyahP-63" value="CityId" style="shape=partialRectangle;connectable=0;fillColor=none;top=0;left=0;bottom=0;right=0;align=left;spacingLeft=6;fontStyle=5;overflow=hidden;" vertex="1" parent="ipYWilvNOGS_KGryyahP-61">
          <mxGeometry x="50" width="110" height="30" as="geometry" />
        </mxCell>
        <mxCell id="ipYWilvNOGS_KGryyahP-64" value="" style="shape=partialRectangle;collapsible=0;dropTarget=0;pointerEvents=0;fillColor=none;top=0;left=0;bottom=0;right=0;points=[[0,0.5],[1,0.5]];portConstraint=eastwest;" vertex="1" parent="ipYWilvNOGS_KGryyahP-60">
          <mxGeometry y="60" width="160" height="30" as="geometry" />
        </mxCell>
        <mxCell id="ipYWilvNOGS_KGryyahP-65" value="" style="shape=partialRectangle;connectable=0;fillColor=none;top=0;left=0;bottom=0;right=0;editable=1;overflow=hidden;" vertex="1" parent="ipYWilvNOGS_KGryyahP-64">
          <mxGeometry width="50" height="30" as="geometry" />
        </mxCell>
        <mxCell id="ipYWilvNOGS_KGryyahP-66" value="Rent Avg" style="shape=partialRectangle;connectable=0;fillColor=none;top=0;left=0;bottom=0;right=0;align=left;spacingLeft=6;overflow=hidden;" vertex="1" parent="ipYWilvNOGS_KGryyahP-64">
          <mxGeometry x="50" width="110" height="30" as="geometry" />
        </mxCell>
        <mxCell id="ipYWilvNOGS_KGryyahP-67" value="" style="shape=partialRectangle;collapsible=0;dropTarget=0;pointerEvents=0;fillColor=none;top=0;left=0;bottom=0;right=0;points=[[0,0.5],[1,0.5]];portConstraint=eastwest;" vertex="1" parent="ipYWilvNOGS_KGryyahP-60">
          <mxGeometry y="90" width="160" height="30" as="geometry" />
        </mxCell>
        <mxCell id="ipYWilvNOGS_KGryyahP-68" value="" style="shape=partialRectangle;connectable=0;fillColor=none;top=0;left=0;bottom=0;right=0;editable=1;overflow=hidden;" vertex="1" parent="ipYWilvNOGS_KGryyahP-67">
          <mxGeometry width="50" height="30" as="geometry" />
        </mxCell>
        <mxCell id="ipYWilvNOGS_KGryyahP-69" value="Value Avg" style="shape=partialRectangle;connectable=0;fillColor=none;top=0;left=0;bottom=0;right=0;align=left;spacingLeft=6;overflow=hidden;" vertex="1" parent="ipYWilvNOGS_KGryyahP-67">
          <mxGeometry x="50" width="110" height="30" as="geometry" />
        </mxCell>
        <mxCell id="ipYWilvNOGS_KGryyahP-70" value="" style="shape=partialRectangle;collapsible=0;dropTarget=0;pointerEvents=0;fillColor=none;top=0;left=0;bottom=0;right=0;points=[[0,0.5],[1,0.5]];portConstraint=eastwest;" vertex="1" parent="ipYWilvNOGS_KGryyahP-60">
          <mxGeometry y="120" width="160" height="30" as="geometry" />
        </mxCell>
        <mxCell id="ipYWilvNOGS_KGryyahP-71" value="" style="shape=partialRectangle;connectable=0;fillColor=none;top=0;left=0;bottom=0;right=0;editable=1;overflow=hidden;" vertex="1" parent="ipYWilvNOGS_KGryyahP-70">
          <mxGeometry width="50" height="30" as="geometry" />
        </mxCell>
        <mxCell id="ipYWilvNOGS_KGryyahP-72" value="RVratio Avg" style="shape=partialRectangle;connectable=0;fillColor=none;top=0;left=0;bottom=0;right=0;align=left;spacingLeft=6;overflow=hidden;" vertex="1" parent="ipYWilvNOGS_KGryyahP-70">
          <mxGeometry x="50" width="110" height="30" as="geometry" />
        </mxCell>
        <mxCell id="ipYWilvNOGS_KGryyahP-100" value="1.&amp;nbsp; customer can register an account and log in&lt;br&gt;2.&amp;nbsp; customer can search for average rent prices, home values,&amp;nbsp;&lt;br&gt;&lt;span style=&quot;white-space: pre&quot;&gt;	&lt;/span&gt;RV ratios&lt;br&gt;3.&amp;nbsp; customer must select a location at the city, state or national level.&amp;nbsp;&lt;br&gt;4.&amp;nbsp;&amp;nbsp;" style="text;html=1;strokeColor=none;fillColor=none;align=left;verticalAlign=middle;whiteSpace=wrap;rounded=0;" vertex="1" parent="1">
          <mxGeometry x="40" y="40" width="420" height="190" as="geometry" />
        </mxCell>
        <mxCell id="ipYWilvNOGS_KGryyahP-101" value="SubrSearchSaves" style="shape=table;startSize=30;container=1;collapsible=1;childLayout=tableLayout;fixedRows=1;rowLines=0;fontStyle=1;align=center;resizeLast=1;" vertex="1" parent="1">
          <mxGeometry x="560" y="390" width="200" height="160" as="geometry" />
        </mxCell>
        <mxCell id="ipYWilvNOGS_KGryyahP-102" value="" style="shape=partialRectangle;collapsible=0;dropTarget=0;pointerEvents=0;fillColor=none;top=0;left=0;bottom=1;right=0;points=[[0,0.5],[1,0.5]];portConstraint=eastwest;" vertex="1" parent="ipYWilvNOGS_KGryyahP-101">
          <mxGeometry y="30" width="200" height="30" as="geometry" />
        </mxCell>
        <mxCell id="ipYWilvNOGS_KGryyahP-103" value="PK,FK" style="shape=partialRectangle;connectable=0;fillColor=none;top=0;left=0;bottom=0;right=0;fontStyle=1;overflow=hidden;" vertex="1" parent="ipYWilvNOGS_KGryyahP-102">
          <mxGeometry width="70" height="30" as="geometry" />
        </mxCell>
        <mxCell id="ipYWilvNOGS_KGryyahP-104" value="SubscriberId" style="shape=partialRectangle;connectable=0;fillColor=none;top=0;left=0;bottom=0;right=0;align=left;spacingLeft=6;fontStyle=5;overflow=hidden;" vertex="1" parent="ipYWilvNOGS_KGryyahP-102">
          <mxGeometry x="70" width="130" height="30" as="geometry" />
        </mxCell>
        <mxCell id="ipYWilvNOGS_KGryyahP-105" value="" style="shape=partialRectangle;collapsible=0;dropTarget=0;pointerEvents=0;fillColor=none;top=0;left=0;bottom=0;right=0;points=[[0,0.5],[1,0.5]];portConstraint=eastwest;" vertex="1" parent="ipYWilvNOGS_KGryyahP-101">
          <mxGeometry y="60" width="200" height="30" as="geometry" />
        </mxCell>
        <mxCell id="ipYWilvNOGS_KGryyahP-106" value="" style="shape=partialRectangle;connectable=0;fillColor=none;top=0;left=0;bottom=0;right=0;editable=1;overflow=hidden;" vertex="1" parent="ipYWilvNOGS_KGryyahP-105">
          <mxGeometry width="70" height="30" as="geometry" />
        </mxCell>
        <mxCell id="ipYWilvNOGS_KGryyahP-107" value="Row 1" style="shape=partialRectangle;connectable=0;fillColor=none;top=0;left=0;bottom=0;right=0;align=left;spacingLeft=6;overflow=hidden;" vertex="1" parent="ipYWilvNOGS_KGryyahP-105">
          <mxGeometry x="70" width="130" height="30" as="geometry" />
        </mxCell>
        <mxCell id="ipYWilvNOGS_KGryyahP-108" value="" style="shape=partialRectangle;collapsible=0;dropTarget=0;pointerEvents=0;fillColor=none;top=0;left=0;bottom=0;right=0;points=[[0,0.5],[1,0.5]];portConstraint=eastwest;" vertex="1" parent="ipYWilvNOGS_KGryyahP-101">
          <mxGeometry y="90" width="200" height="30" as="geometry" />
        </mxCell>
        <mxCell id="ipYWilvNOGS_KGryyahP-109" value="" style="shape=partialRectangle;connectable=0;fillColor=none;top=0;left=0;bottom=0;right=0;editable=1;overflow=hidden;" vertex="1" parent="ipYWilvNOGS_KGryyahP-108">
          <mxGeometry width="70" height="30" as="geometry" />
        </mxCell>
        <mxCell id="ipYWilvNOGS_KGryyahP-110" value="Row 2" style="shape=partialRectangle;connectable=0;fillColor=none;top=0;left=0;bottom=0;right=0;align=left;spacingLeft=6;overflow=hidden;" vertex="1" parent="ipYWilvNOGS_KGryyahP-108">
          <mxGeometry x="70" width="130" height="30" as="geometry" />
        </mxCell>
        <mxCell id="ipYWilvNOGS_KGryyahP-111" value="" style="shape=partialRectangle;collapsible=0;dropTarget=0;pointerEvents=0;fillColor=none;top=0;left=0;bottom=0;right=0;points=[[0,0.5],[1,0.5]];portConstraint=eastwest;" vertex="1" parent="ipYWilvNOGS_KGryyahP-101">
          <mxGeometry y="120" width="200" height="30" as="geometry" />
        </mxCell>
        <mxCell id="ipYWilvNOGS_KGryyahP-112" value="" style="shape=partialRectangle;connectable=0;fillColor=none;top=0;left=0;bottom=0;right=0;editable=1;overflow=hidden;" vertex="1" parent="ipYWilvNOGS_KGryyahP-111">
          <mxGeometry width="70" height="30" as="geometry" />
        </mxCell>
        <mxCell id="ipYWilvNOGS_KGryyahP-113" value="Row 3" style="shape=partialRectangle;connectable=0;fillColor=none;top=0;left=0;bottom=0;right=0;align=left;spacingLeft=6;overflow=hidden;" vertex="1" parent="ipYWilvNOGS_KGryyahP-111">
          <mxGeometry x="70" width="130" height="30" as="geometry" />
        </mxCell>
      </root>
    </mxGraphModel>
  </diagram>
</mxfile>
